<?xml version="1.0" encoding="UTF-8" standalone="no"?>
<svg width="60px" height="60px" viewBox="0 0 60 60" version="1.1" xmlns="http://www.w3.org/2000/svg" xmlns:xlink="http://www.w3.org/1999/xlink">
    <!-- Generator: Sketch 3.8.3 (29802) - http://www.bohemiancoding.com/sketch -->
    <title>Group</title>
    <desc>Created with Sketch.</desc>
    <defs></defs>
    <g id="Page-1" stroke="none" stroke-width="1" fill="none" fill-rule="evenodd">
        <g id="noun_898167_cc" fill="#428BCA">
            <g id="Group">
                <path d="M60,19.1709375 L30,0.765 L19.0393548,7.490625 C17.4803226,6.4809375 16.4516129,4.7615625 16.4516129,2.8125 L14.516129,2.8125 C14.516129,5.9146875 11.9119355,8.4375 8.70967742,8.4375 L8.70967742,10.3125 C10.0625806,10.3125 11.3051613,10.76625 12.2932258,11.52 L0,19.175625 L0,30.7659375 L5.80645161,27.2034375 L5.80645161,34.6875 C5.80645161,37.2721875 3.63580645,39.375 0.967741935,39.375 L0.967741935,41.25 C3.63580645,41.25 5.80645161,43.3528125 5.80645161,45.9375 L5.80645161,59.0625 L13.5483871,59.0625 L29.0322581,59.0625 L54.1935484,59.0625 L54.1935484,27.2034375 L60,30.7659375 L60,19.1709375 L60,19.1709375 Z M12.4548387,9.375 C13.7254839,8.6915625 14.7783871,7.6725 15.483871,6.440625 C16.1893548,7.6715625 17.2422581,8.6915625 18.5129032,9.375 C17.2422581,10.0584375 16.1893548,11.0775 15.483871,12.309375 C15.0958065,11.6315625 14.5945161,11.026875 14.0167742,10.498125 L13.9925806,10.4615625 L13.9819355,10.468125 C13.5193548,10.0490625 13.0122581,9.675 12.4548387,9.375 L12.4548387,9.375 Z M4.45451613,40.3125 C5.40290323,39.7584375 6.20225806,38.9840625 6.77419355,38.0653125 C7.34612903,38.9840625 8.14548387,39.759375 9.09387097,40.3125 C8.14548387,40.8665625 7.34612903,41.6409375 6.77419355,42.5596875 C6.20225806,41.6409375 5.40290323,40.8665625 4.45451613,40.3125 L4.45451613,40.3125 Z M15.483871,57.1875 L15.483871,32.8125 L27.0967742,32.8125 L27.0967742,57.1875 L15.483871,57.1875 L15.483871,57.1875 Z M52.2580645,57.1875 L29.0322581,57.1875 L29.0322581,30.9375 L13.5483871,30.9375 L13.5483871,57.1875 L7.74193548,57.1875 L7.74193548,45.9375 C7.74193548,43.3528125 9.91258065,41.25 12.5806452,41.25 L12.5806452,39.375 C9.91258065,39.375 7.74193548,37.2721875 7.74193548,34.6875 L7.74193548,26.0165625 L30,12.36 L36.2390323,16.1878125 C34.6558065,17.7646875 32.4454839,18.75 30,18.75 L30,20.625 C34.8019355,20.625 38.7096774,24.4096875 38.7096774,29.0625 L40.6451613,29.0625 C40.6451613,25.87875 42.476129,23.1028125 45.1703226,21.6665625 L52.2580645,26.015625 L52.2580645,57.1875 L52.2580645,57.1875 Z M39.6774194,14.6071875 C40.7409677,16.8478125 42.6096774,18.6571875 44.9206452,19.6875 C42.6087097,20.7178125 40.7409677,22.5271875 39.6774194,24.7678125 C38.613871,22.5271875 36.7451613,20.7178125 34.4341935,19.6875 C36.7451613,18.6571875 38.613871,16.8478125 39.6774194,14.6071875 L39.6774194,14.6071875 Z M58.0645161,27.3590625 L47.4367742,20.8378125 C48.0551613,20.7028125 48.6948387,20.625 49.3548387,20.625 L49.3548387,18.75 C44.5529032,18.75 40.6451613,14.9653125 40.6451613,10.3125 L38.7096774,10.3125 C38.7096774,11.919375 38.2354839,13.4175 37.4274194,14.6971875 L30,10.14 L1.93548387,27.3590625 L1.93548387,20.199375 L13.6083871,12.93 C14.1803226,13.8009375 14.516129,14.83125 14.516129,15.9375 L16.4516129,15.9375 C16.4516129,12.8353125 19.0558065,10.3125 22.2580645,10.3125 L22.2580645,8.4375 C21.9164516,8.4375 21.5835484,8.4028125 21.2583871,8.3484375 L30,2.985 L58.0645161,20.2040625 L58.0645161,27.3590625 L58.0645161,27.3590625 Z" id="Shape"></path>
                <path d="M32.9032258,42.1875 L47.4193548,42.1875 L47.4193548,30.9375 L32.9032258,30.9375 L32.9032258,42.1875 L32.9032258,42.1875 Z M34.8387097,32.8125 L45.483871,32.8125 L45.483871,40.3125 L34.8387097,40.3125 L34.8387097,32.8125 L34.8387097,32.8125 Z" id="Shape"></path>
                <rect id="Rectangle-path" x="23.2258065" y="45" width="1.93548387" height="1.875"></rect>
                <rect id="Rectangle-path" x="41.6129032" y="34.6875" width="1.93548387" height="1.875"></rect>
                <rect id="Rectangle-path" x="48.3870968" y="53.4375" width="1.93548387" height="1.875"></rect>
                <rect id="Rectangle-path" x="44.516129" y="53.4375" width="1.93548387" height="1.875"></rect>
                <rect id="Rectangle-path" x="40.6451613" y="53.4375" width="1.93548387" height="1.875"></rect>
            </g>
        </g>
    </g>
</svg>