<?xml version="1.0" encoding="UTF-8" standalone="no"?>
<svg width="60px" height="60px" viewBox="0 0 60 60" version="1.1" xmlns="http://www.w3.org/2000/svg" xmlns:xlink="http://www.w3.org/1999/xlink">
    <!-- Generator: Sketch 3.8.3 (29802) - http://www.bohemiancoding.com/sketch -->
    <title>menage</title>
    <desc>Created with Sketch.</desc>
    <defs></defs>
    <g id="Page-1" stroke="none" stroke-width="1" fill="none" fill-rule="evenodd">
        <g id="menage" fill="#428BCA">
            <g id="Page-1">
                <g id="noun_5866_cc">
                    <g id="Group">
                        <path d="M54.9288889,37.3977551 L48.4822222,37.4185714 L48.4822222,37.255102 C48.4822222,36.9526531 48.182963,36.7053061 47.8155556,36.7053061 L46.4422222,36.7053061 C46.0748148,36.7053061 45.7755556,36.9526531 45.7755556,37.255102 L45.7755556,37.4271429 L42.8459259,37.4369388 C40.5281481,37.4455102 37.0414815,38.277551 35.0755556,39.2926531 L34.5155556,39.5822449 L33.4022222,38.6626531 C33.2718519,38.554898 33.0592593,38.554898 32.9303704,38.6626531 L32.6333333,38.9081633 C32.2355556,38.697551 31.8362963,38.4006122 31.5681481,37.975102 C30.86,36.8522449 31.2051852,35.0871429 32.5637037,32.882449 C32.5637037,32.882449 41.6274074,18.5093878 45.3311111,12.6655102 C48.0614815,8.35897959 48.4459259,4.49265306 46.3918519,2.0577551 C45.1881481,0.63244898 43.2318519,-0.0857142857 41.1614815,0.138979592 C38.1637037,0.464081633 35.5177778,2.61061224 34.0925926,5.85 L32.3148148,9.50632653 L32.142963,9.44632653 L13.8866667,50.5402041 L13.5437037,50.4520408 C13.1266667,51.5871429 12.6762963,52.4846939 12.0051852,53.5120408 L5.14518519,52.1620408 C4.84,52.1020408 4.34074074,52.0983673 4.03407407,52.1546939 C4.03407407,52.1546939 2.81481481,52.3769388 1.73407407,53.1269388 C0.651111111,53.877551 0.11037037,55.1834694 0.11037037,55.1834694 C0.00962962963,55.4283673 0.174814815,55.6830612 0.477777778,55.7491837 L19.6111111,59.9357143 C19.9140741,60.002449 20.2155556,59.8493878 20.2814815,59.5959184 C20.2814815,59.5959184 20.6066667,58.3463265 21.4088889,57.4818367 C22.2125926,56.6173469 22.8814815,56.0663265 22.8814815,56.0663265 C23.1037037,55.8826531 23.0362963,55.6855102 22.7311111,55.6242857 L15.5244444,54.2063265 C16.0851852,53.2677551 16.5148148,52.3585714 16.9051852,51.3 L16.6711111,51.2406122 L34.8281481,10.3732653 L34.7066667,10.3310204 L36.5148148,6.61102041 C37.6155556,4.10632653 39.4792593,2.47959184 41.4992593,2.26102041 C42.6259259,2.13795918 43.6103704,2.50163265 44.2681481,3.2822449 C45.7296296,5.01367347 45.2696296,8.15020408 43.0385185,11.6718367 C39.3318519,17.5163265 30.2659259,31.8918367 30.2592593,31.9010204 C28.4748148,34.7987755 28.1422222,37.1779592 29.2703704,38.9657143 C29.6725926,39.6030612 30.2133333,40.0787755 30.7777778,40.44 L30.5696296,40.6108163 C30.4392593,40.7185714 30.4392593,40.8942857 30.5696296,41.0032653 L31.5385185,41.8034694 C30.5592593,42.784898 29.7311111,43.887551 29.3207407,44.8573469 L28.04,47.8836735 C27.6111111,48.8987755 27.7296296,49.8704082 28.3740741,50.6234694 C29.0185185,51.3728571 30.0896296,51.784898 31.3896296,51.784898 L46.6385185,51.784898 C47.5785185,52.8838776 49.122963,53.6057143 50.8711111,53.6057143 C52.6222222,53.6057143 54.1703704,52.8808163 55.1088889,51.7787755 C57.6251852,51.7010204 59.6444444,49.9897959 59.642963,47.8934694 L59.642963,41.2787755 C59.6444444,39.1395918 57.5377778,37.3977551 54.9288889,37.3977551 L54.9288889,37.3977551 L54.9288889,37.3977551 Z M15.6703704,50.9883673 L14.8814815,50.79 L32.742963,10.5881633 L33.5022222,10.8508163 L15.6703704,50.9883673 L15.6703704,50.9883673 L15.6703704,50.9883673 Z M30.5607407,45.242449 C31.2325926,43.6518367 33.2585185,41.5567347 34.9859259,40.6640816 L35.7296296,40.2802041 C37.477037,39.3765306 40.6962963,38.6093878 42.7577778,38.6032653 L54.8540741,38.5640816 C56.2903704,38.5640816 57.5540741,39.1891837 57.9985185,40.2532653 C56.0207407,41.1030612 48.5207407,44.3197959 47.6844444,44.6020408 C46.7207407,44.9271429 45.8874074,44.9761224 45.8874074,44.9761224 L30.3585185,45.6985714 L30.5607407,45.242449 L30.5607407,45.242449 L30.5607407,45.242449 Z M53.1525926,51.7861224 C52.5177778,52.1895918 51.7325926,52.4387755 50.8711111,52.4387755 C50.0103704,52.4387755 49.2244444,52.1895918 48.5896296,51.7861224 C48.5896296,51.7861224 47.8822222,51.3422449 47.4540741,50.6179592 C47.2037037,50.1936735 47.1037037,49.7883673 47.1037037,49.3255102 C47.1037037,47.6081633 48.7933333,46.2104082 50.8711111,46.2104082 C52.9488889,46.2104082 54.6385185,47.6081633 54.6385185,49.3255102 C54.6385185,49.7883673 54.537037,50.1238776 54.2881481,50.6179592 C53.9814815,51.2277551 53.1525926,51.7861224 53.1525926,51.7861224 L53.1525926,51.7861224 L53.1525926,51.7861224 Z M58.1362963,47.8928571 C58.1362963,49.1008163 57.1740741,50.1159184 55.8548148,50.4722449 C55.9792593,50.1061224 56.0503704,49.7228571 56.0503704,49.3255102 C56.0503704,46.9653061 53.7266667,45.0434694 50.8711111,45.0434694 C48.0140741,45.0434694 45.6903704,46.9653061 45.6903704,49.3255102 C45.6903704,49.7755102 45.7762963,50.2095918 45.9333333,50.6179592 L31.2955556,50.6179592 C30.4659259,50.6179592 29.8044444,50.3797959 29.4318519,49.9463265 C29.06,49.5128571 29.0066667,48.9171429 29.28,48.2706122 L30.1377778,46.2434694 L45.7940741,45.5136735 C45.7940741,45.5136735 46.9296296,45.4346939 47.7540741,45.1310204 C48.4614815,44.8714286 55.957037,41.6834694 58.0762963,40.7816327 C58.1133333,40.9432653 58.137037,41.1079592 58.137037,41.2787755 L58.137037,47.8928571 L58.1362963,47.8928571 L58.1362963,47.8928571 L58.1362963,47.8928571 Z" id="Shape"></path>
                        <path d="M21.6525926,57.567551 C20.92,58.4320408 20.3525926,59.8885714 20.3525926,59.8885714 C20.3755556,59.8885714 22.9859259,57.2706122 22.9859259,57.2706122 L23.1051852,56.125102 C23.1051852,56.125102 22.3844444,56.7030612 21.6525926,57.567551 L21.6525926,57.567551 L21.6525926,57.567551 Z" id="Shape"></path>
                    </g>
                </g>
            </g>
        </g>
    </g>
</svg>