<?xml version="1.0" encoding="UTF-8" standalone="no"?>
<svg width="60px" height="60px" viewBox="0 0 60 60" version="1.1" xmlns="http://www.w3.org/2000/svg" xmlns:xlink="http://www.w3.org/1999/xlink">
    <!-- Generator: Sketch 3.8.3 (29802) - http://www.bohemiancoding.com/sketch -->
    <title>repassage</title>
    <desc>Created with Sketch.</desc>
    <defs></defs>
    <g id="Page-1" stroke="none" stroke-width="1" fill="none" fill-rule="evenodd">
        <g id="repassage" fill="#428BCA">
            <g id="Page-1">
                <g id="noun_66076_cc">
                    <g id="Group">
                        <path d="M12.6818182,43.9550562 C12.75,44.0224719 12.8863636,44.0224719 12.9545455,44.0224719 C13.2954545,44.0224719 13.6363636,43.8202247 13.7727273,43.4831461 L29.1136364,1.28089888 C29.25,0.876404494 29.0454545,0.337078652 28.5681818,0.202247191 C28.0909091,0.0674157303 27.6136364,0.269662921 27.4772727,0.741573034 L12.1363636,42.8764045 C12,43.2808989 12.2045455,43.752809 12.6818182,43.9550562 L12.6818182,43.9550562 L12.6818182,43.9550562 Z" id="Shape"></path>
                        <path d="M31.7045455,52.4494382 L39.8181818,52.4494382 C41.25,52.4494382 42.4772727,51.505618 42.8863636,50.1573034 C43.8409091,46.5168539 44.3181818,40.247191 41.0454545,31.011236 C40.5681818,29.7303371 39.4090909,28.9213483 38.0454545,28.9213483 C36.6818182,28.9213483 35.5227273,29.7303371 35.1136364,31.011236 L32.3863636,38.4269663 L31.3636364,40.9213483 L31.3636364,40.9213483 L28.7045455,48.2022472 C28.3636364,49.1460674 28.5,50.2247191 29.1136364,51.0337079 C29.7272727,51.9101124 30.6818182,52.4494382 31.7045455,52.4494382 L31.7045455,52.4494382 L31.7045455,52.4494382 Z M33.8863636,39.1685393 L34.9772727,36.1348315 C35.5909091,36.6067416 36,37.3483146 36,38.0898876 C36,39.505618 34.8409091,40.6516854 33.4090909,40.6516854 L33.3409091,40.6516854 L33.8863636,39.1685393 L33.8863636,39.1685393 L33.8863636,39.1685393 Z M30.3409091,48.8089888 L32.7272727,42.2022472 C32.9318182,42.2696629 33.2045455,42.2696629 33.4090909,42.2696629 C35.7272727,42.2696629 37.7045455,40.3820225 37.7045455,38.0224719 C37.7045455,36.5393258 36.8863636,35.1910112 35.5909091,34.3820225 L36.6818182,31.4157303 C37.0227273,30.5393258 37.7727273,30.4719101 38.0454545,30.4719101 C38.5227273,30.4719101 39.2045455,30.741573 39.4090909,31.4157303 C42.5454545,40.247191 42.1363636,46.1797753 41.25,49.5505618 C41.1136364,50.1573034 40.5,50.6292135 39.8181818,50.6292135 L31.7045455,50.6292135 C31.2272727,50.6292135 30.8181818,50.4269663 30.5454545,50.0224719 C30.2727273,49.752809 30.2045455,49.2808989 30.3409091,48.8089888 L30.3409091,48.8089888 L30.3409091,48.8089888 Z" id="Shape"></path>
                        <path d="M31.4318182,15.3033708 C31.5,15.3707865 31.6363636,15.3707865 31.7045455,15.3707865 C32.0454545,15.3707865 32.3863636,15.1685393 32.5227273,14.8314607 L33.1363636,13.1460674 C33.2727273,12.741573 33.0681818,12.2022472 32.5909091,12.0674157 C32.1136364,11.9325843 31.6363636,12.1348315 31.5,12.6067416 L30.8863636,14.2921348 C30.75,14.6292135 30.9545455,15.1011236 31.4318182,15.3033708 L31.4318182,15.3033708 L31.4318182,15.3033708 Z" id="Shape"></path>
                        <path d="M1.02272727,55.8202247 C0.545454545,55.8202247 0.136363636,56.2247191 0.136363636,56.6966292 C0.136363636,57.1685393 0.545454545,57.5730337 1.02272727,57.5730337 L3.61363636,57.5730337 L3.61363636,58.4494382 C3.61363636,58.7191011 3.75,58.988764 3.95454545,59.1235955 C4.09090909,59.258427 4.29545455,59.258427 4.43181818,59.258427 C4.5,59.258427 4.63636364,59.258427 4.70454545,59.1910112 L9.81818182,57.505618 C10.1590909,57.3707865 10.4318182,57.1011236 10.4318182,56.6966292 L10.4318182,55.8202247 C13.9090909,55.752809 15.9545455,55.2808989 17.1818182,54.8089888 L18.2045455,58.7191011 C18.4090909,59.4606742 19.0909091,60 19.8409091,60 L45.4090909,60 C45.8863636,60 46.3636364,59.7977528 46.6363636,59.4606742 C46.7045455,59.3932584 46.7727273,59.3258427 46.9090909,59.1235955 C52.0909091,58.988764 59.8636364,57.9775281 59.8636364,54.9438202 C59.8636364,52.3146067 54.1363636,51.3707865 50.5909091,50.9662921 C52.5681818,42.1348315 51.4772727,26.1573034 33.1363636,1.68539326 C32.7954545,1.21348315 32.1136364,0.943820225 31.5,1.01123596 C30.8863636,1.07865169 30.3409091,1.5505618 30.1363636,2.08988764 L14.7272727,44.2921348 C14.5909091,44.6292135 14.5909091,44.9662921 14.6590909,45.3033708 L16.6363636,53.1910112 C15.8181818,53.5280899 13.9772727,54.0674157 10.2954545,54.1348315 L10.2954545,53.258427 C10.2954545,52.9213483 10.0909091,52.5842697 9.68181818,52.4494382 L4.56818182,50.7640449 C4.29545455,50.6966292 4.02272727,50.6966292 3.81818182,50.8988764 C3.61363636,51.0337079 3.47727273,51.3033708 3.47727273,51.5730337 L3.47727273,52.4494382 L1.02272727,52.4494382 C0.545454545,52.4494382 0.136363636,52.8539326 0.136363636,53.3258427 C0.136363636,53.7977528 0.545454545,54.2022472 1.02272727,54.2022472 L3.61363636,54.2022472 L3.61363636,55.8876404 L1.02272727,55.8876404 L1.02272727,55.8202247 L1.02272727,55.8202247 Z M50.1136364,52.6516854 C55.7045455,53.1910112 58.0909091,54.4719101 58.0909091,54.9438202 C58.0909091,55.6179775 54.6136364,57.1011236 48.0681818,57.3707865 C48.75,56.2921348 49.5,54.6741573 50.1136364,52.6516854 L50.1136364,52.6516854 L50.1136364,52.6516854 Z M32.25,6.26966292 C45.3409091,24.4719101 48,37.2134831 47.8636364,44.7640449 C47.7272727,51.4382022 45.4772727,55.2808989 44.5227273,56.6292135 L21.1363636,56.6292135 L18.2045455,44.8988764 L32.25,6.26966292 L32.25,6.26966292 L32.25,6.26966292 Z M5.31818182,52.7191011 L8.72727273,53.8651685 L8.72727273,56.0224719 L5.31818182,57.1685393 L5.31818182,52.7191011 L5.31818182,52.7191011 L5.31818182,52.7191011 Z" id="Shape"></path>
                    </g>
                </g>
            </g>
        </g>
    </g>
</svg>